# xmcd
#
# Track frame offsets:
#	150
#	16974
#	40596
#	56037
#	72697
#
# Disc length: 1212 seconds
#
# Revision: 6
# Processed by: cddbd v1.5.1PL0 Copyright (c) Steve Scherf et al.
# Submitted via: EasyCDDAExtractor 8.1.2.3
#
DISCID=4004ba05
DTITLE=Rollergirl - Luv U More (Maxi-CD)
DYEAR=1999
DGENRE=Dance
TTITLE0=Luv U More (Radio Edit)
TTITLE1=Luv U More (12'' Brock Mix)
TTITLE2=Rollergirl (Single Edit)
TTITLE3=Luv U More (Sing A Song)
TTITLE4=Dear Jessie (Radio Edit)
EXTD=
EXTT0=
EXTT1=
EXTT2=
EXTT3=
EXTT4=
PLAYORDER=
